<svg width="466" height="141" viewBox="0 0 466 141" fill="none" xmlns="http://www.w3.org/2000/svg">
<rect x="54.9223" y="5.18048" width="11.7769" height="54.1739" rx="5.88847" transform="rotate(90 54.9223 5.18048)" fill="#95ABBC"/>
<rect x="339.207" y="5.10911" width="11.9197" height="269.981" rx="5.95985" transform="rotate(90 339.207 5.10911)" fill="#8FB6D5"/>
<path d="M356.909 7.30592C357.685 7.30592 358.3 7.48635 358.754 7.8472C359.208 8.20805 359.435 8.70664 359.435 9.34298C359.435 9.76203 359.305 10.1442 359.045 10.4896C358.785 10.8349 358.37 11.1492 357.8 11.4324C358.49 11.7622 358.981 12.1095 359.272 12.4742C359.563 12.8351 359.709 13.2541 359.709 13.7314C359.709 14.4376 359.462 15.0021 358.97 15.425C358.477 15.8441 357.802 16.0536 356.944 16.0536C356.036 16.0536 355.338 15.8557 354.849 15.46C354.36 15.0603 354.116 14.4958 354.116 13.7663C354.116 12.7924 354.709 12.0338 355.897 11.4906C355.361 11.188 354.977 10.862 354.744 10.5128C354.511 10.1597 354.395 9.76591 354.395 9.33134C354.395 8.7144 354.622 8.22357 355.076 7.85884C355.534 7.49023 356.145 7.30592 356.909 7.30592ZM355.07 13.7896C355.07 14.2552 355.231 14.618 355.553 14.8779C355.879 15.1379 356.335 15.2679 356.921 15.2679C357.499 15.2679 357.949 15.1321 358.271 14.8605C358.593 14.5889 358.754 14.2164 358.754 13.743C358.754 13.3666 358.603 13.033 358.3 12.742C357.998 12.4471 357.47 12.1619 356.717 11.8864C356.139 12.1347 355.72 12.4102 355.46 12.7129C355.2 13.0116 355.07 13.3705 355.07 13.7896ZM356.898 8.09165C356.413 8.09165 356.032 8.20805 355.757 8.44085C355.481 8.67366 355.344 8.98407 355.344 9.37208C355.344 9.72905 355.458 10.0356 355.687 10.2917C355.916 10.5478 356.339 10.8038 356.956 11.0599C357.511 10.8271 357.903 10.5769 358.132 10.3091C358.364 10.0414 358.481 9.72905 358.481 9.37208C358.481 8.98019 358.339 8.66978 358.056 8.44085C357.776 8.20805 357.39 8.09165 356.898 8.09165ZM366.553 11.671C366.553 13.1416 366.32 14.2397 365.855 14.9653C365.393 15.6908 364.685 16.0536 363.731 16.0536C362.815 16.0536 362.118 15.6831 361.641 14.942C361.164 14.197 360.925 13.1067 360.925 11.671C360.925 10.1888 361.156 9.08883 361.618 8.37101C362.08 7.65319 362.784 7.29428 363.731 7.29428C364.654 7.29428 365.354 7.66871 365.832 8.41757C366.313 9.16643 366.553 10.2509 366.553 11.671ZM361.903 11.671C361.903 12.9088 362.048 13.8109 362.339 14.3774C362.631 14.94 363.094 15.2213 363.731 15.2213C364.375 15.2213 364.84 14.9362 365.127 14.3658C365.418 13.7915 365.564 12.8933 365.564 11.671C365.564 10.4488 365.418 9.55445 365.127 8.98795C364.84 8.41757 364.375 8.13239 363.731 8.13239C363.094 8.13239 362.631 8.41369 362.339 8.97631C362.048 9.53504 361.903 10.4333 361.903 11.671ZM368.561 9.96574C368.561 10.6254 368.633 11.1201 368.777 11.4499C368.92 11.7797 369.153 11.9446 369.475 11.9446C370.111 11.9446 370.43 11.285 370.43 9.96574C370.43 8.65426 370.111 7.99852 369.475 7.99852C369.153 7.99852 368.92 8.16149 368.777 8.48742C368.633 8.81334 368.561 9.30612 368.561 9.96574ZM371.227 9.96574C371.227 10.8504 371.077 11.5197 370.779 11.9737C370.484 12.4238 370.049 12.6488 369.475 12.6488C368.932 12.6488 368.509 12.418 368.206 11.9562C367.907 11.4945 367.758 10.831 367.758 9.96574C367.758 9.08495 367.902 8.42145 368.189 7.97524C368.48 7.52903 368.909 7.30592 369.475 7.30592C370.038 7.30592 370.47 7.53679 370.773 7.99852C371.076 8.46026 371.227 9.11599 371.227 9.96574ZM373.683 13.3763C373.683 14.0398 373.755 14.5365 373.898 14.8663C374.042 15.1922 374.277 15.3552 374.603 15.3552C374.928 15.3552 375.169 15.1942 375.324 14.8721C375.479 14.5462 375.557 14.0476 375.557 13.3763C375.557 12.7129 375.479 12.222 375.324 11.9038C375.169 11.5818 374.928 11.4208 374.603 11.4208C374.277 11.4208 374.042 11.5818 373.898 11.9038C373.755 12.222 373.683 12.7129 373.683 13.3763ZM376.354 13.3763C376.354 14.2571 376.205 14.9245 375.906 15.3785C375.611 15.8286 375.177 16.0536 374.603 16.0536C374.052 16.0536 373.627 15.8228 373.328 15.361C373.033 14.8993 372.886 14.2377 372.886 13.3763C372.886 12.4956 373.029 11.8321 373.316 11.3859C373.607 10.9396 374.036 10.7165 374.603 10.7165C375.154 10.7165 375.582 10.9455 375.889 11.4033C376.199 11.8573 376.354 12.515 376.354 13.3763ZM374.853 7.42815L370.133 15.9372H369.277L373.997 7.42815H374.853Z" fill="white"/>
<rect x="54.9223" y="44.2174" width="11.7769" height="54.1739" rx="5.88847" transform="rotate(90 54.9223 44.2174)" fill="#95ABBC"/>
<rect x="149.088" y="44.4441" width="11.3237" height="79.8619" rx="5.66185" transform="rotate(90 149.088 44.4441)" fill="#0DBBFC"/>
<path d="M169.246 47.7652C169.246 48.3084 169.093 48.7527 168.787 49.098C168.484 49.4434 168.053 49.6742 167.495 49.7906V49.8372C168.178 49.9226 168.684 50.1399 169.014 50.4891C169.343 50.8383 169.508 51.2961 169.508 51.8626C169.508 52.6736 169.227 53.2983 168.664 53.7367C168.102 54.1713 167.303 54.3886 166.267 54.3886C165.816 54.3886 165.403 54.3536 165.027 54.2838C164.654 54.2178 164.292 54.0995 163.939 53.9288V53.0092C164.307 53.1916 164.699 53.3312 165.114 53.4282C165.533 53.5214 165.929 53.5679 166.301 53.5679C167.772 53.5679 168.507 52.9917 168.507 51.8393C168.507 50.8072 167.696 50.2912 166.075 50.2912H165.236V49.4589H166.086C166.75 49.4589 167.275 49.3134 167.663 49.0224C168.051 48.7275 168.245 48.3201 168.245 47.8001C168.245 47.385 168.102 47.059 167.815 46.8224C167.531 46.5857 167.145 46.4673 166.657 46.4673C166.284 46.4673 165.933 46.5178 165.603 46.6187C165.273 46.7195 164.897 46.9058 164.474 47.1774L163.985 46.5255C164.334 46.25 164.736 46.0347 165.19 45.8795C165.648 45.7204 166.129 45.6409 166.633 45.6409C167.46 45.6409 168.102 45.831 168.56 46.2112C169.018 46.5876 169.246 47.1056 169.246 47.7652ZM176.434 50.006C176.434 51.4765 176.202 52.5746 175.736 53.3002C175.274 54.0258 174.566 54.3886 173.612 54.3886C172.696 54.3886 171.999 54.018 171.522 53.2769C171.045 52.5319 170.806 51.4416 170.806 50.006C170.806 48.5238 171.037 47.4238 171.499 46.706C171.961 45.9881 172.665 45.6292 173.612 45.6292C174.535 45.6292 175.235 46.0037 175.713 46.7525C176.194 47.5014 176.434 48.5859 176.434 50.006ZM171.784 50.006C171.784 51.2437 171.93 52.1459 172.221 52.7124C172.512 53.275 172.975 53.5563 173.612 53.5563C174.256 53.5563 174.721 53.2711 175.008 52.7007C175.299 52.1265 175.445 51.2282 175.445 50.006C175.445 48.7838 175.299 47.8894 175.008 47.3229C174.721 46.7525 174.256 46.4673 173.612 46.4673C172.975 46.4673 172.512 46.7486 172.221 47.3113C171.93 47.87 171.784 48.7682 171.784 50.006ZM178.442 48.3007C178.442 48.9603 178.514 49.455 178.658 49.7848C178.801 50.1146 179.034 50.2795 179.356 50.2795C179.992 50.2795 180.311 49.6199 180.311 48.3007C180.311 46.9892 179.992 46.3335 179.356 46.3335C179.034 46.3335 178.801 46.4964 178.658 46.8224C178.514 47.1483 178.442 47.6411 178.442 48.3007ZM181.108 48.3007C181.108 49.1853 180.959 49.8547 180.66 50.3086C180.365 50.7587 179.93 50.9838 179.356 50.9838C178.813 50.9838 178.39 50.7529 178.087 50.2912C177.789 49.8294 177.639 49.1659 177.639 48.3007C177.639 47.4199 177.783 46.7564 178.07 46.3102C178.361 45.864 178.79 45.6409 179.356 45.6409C179.919 45.6409 180.351 45.8717 180.654 46.3335C180.957 46.7952 181.108 47.4509 181.108 48.3007ZM183.564 51.7113C183.564 52.3748 183.636 52.8714 183.779 53.2013C183.923 53.5272 184.158 53.6901 184.484 53.6901C184.81 53.6901 185.05 53.5291 185.205 53.2071C185.361 52.8811 185.438 52.3826 185.438 51.7113C185.438 51.0478 185.361 50.557 185.205 50.2388C185.05 49.9167 184.81 49.7557 184.484 49.7557C184.158 49.7557 183.923 49.9167 183.779 50.2388C183.636 50.557 183.564 51.0478 183.564 51.7113ZM186.236 51.7113C186.236 52.5921 186.086 53.2595 185.787 53.7134C185.492 54.1635 185.058 54.3886 184.484 54.3886C183.933 54.3886 183.508 54.1577 183.209 53.696C182.914 53.2342 182.767 52.5727 182.767 51.7113C182.767 50.8305 182.91 50.167 183.197 49.7208C183.488 49.2746 183.917 49.0515 184.484 49.0515C185.035 49.0515 185.463 49.2804 185.77 49.7383C186.08 50.1922 186.236 50.8499 186.236 51.7113ZM184.734 45.7631L180.014 54.2722H179.158L183.878 45.7631H184.734Z" fill="white"/>
<rect x="54.9223" y="82.9564" width="11.7769" height="54.1739" rx="5.88847" transform="rotate(90 54.9223 82.9564)" fill="#95ABBC"/>
<rect x="386.885" y="82.885" width="11.9197" height="317.66" rx="5.95985" transform="rotate(90 386.885 82.885)" fill="white"/>
<path d="M405.35 93.0111H404.408V86.9465C404.408 86.4421 404.423 85.9649 404.454 85.5148C404.373 85.5963 404.282 85.6816 404.181 85.7709C404.08 85.8601 403.618 86.2384 402.795 86.9058L402.283 86.2423L404.536 84.5021H405.35V93.0111ZM414.232 88.745C414.232 90.2155 413.999 91.3136 413.534 92.0392C413.072 92.7647 412.364 93.1275 411.409 93.1275C410.494 93.1275 409.797 92.757 409.32 92.0159C408.843 91.2709 408.604 90.1806 408.604 88.745C408.604 87.2628 408.835 86.1627 409.297 85.4449C409.758 84.7271 410.463 84.3682 411.409 84.3682C412.333 84.3682 413.033 84.7426 413.51 85.4915C413.991 86.2403 414.232 87.3248 414.232 88.745ZM409.582 88.745C409.582 89.9827 409.727 90.8848 410.018 91.4513C410.309 92.0139 410.773 92.2953 411.409 92.2953C412.053 92.2953 412.519 92.0101 412.806 91.4397C413.097 90.8654 413.243 89.9672 413.243 88.745C413.243 87.5227 413.097 86.6284 412.806 86.0619C412.519 85.4915 412.053 85.2063 411.409 85.2063C410.773 85.2063 410.309 85.4876 410.018 86.0502C409.727 86.609 409.582 87.5072 409.582 88.745ZM421.053 88.745C421.053 90.2155 420.82 91.3136 420.355 92.0392C419.893 92.7647 419.185 93.1275 418.231 93.1275C417.315 93.1275 416.618 92.757 416.141 92.0159C415.664 91.2709 415.425 90.1806 415.425 88.745C415.425 87.2628 415.656 86.1627 416.118 85.4449C416.58 84.7271 417.284 84.3682 418.231 84.3682C419.154 84.3682 419.854 84.7426 420.332 85.4915C420.813 86.2403 421.053 87.3248 421.053 88.745ZM416.403 88.745C416.403 89.9827 416.548 90.8848 416.839 91.4513C417.13 92.0139 417.594 92.2953 418.231 92.2953C418.875 92.2953 419.34 92.0101 419.627 91.4397C419.918 90.8654 420.064 89.9672 420.064 88.745C420.064 87.5227 419.918 86.6284 419.627 86.0619C419.34 85.4915 418.875 85.2063 418.231 85.2063C417.594 85.2063 417.13 85.4876 416.839 86.0502C416.548 86.609 416.403 87.5072 416.403 88.745ZM423.061 87.0396C423.061 87.6993 423.133 88.194 423.277 88.5238C423.42 88.8536 423.653 89.0185 423.975 89.0185C424.611 89.0185 424.93 88.3589 424.93 87.0396C424.93 85.7282 424.611 85.0724 423.975 85.0724C423.653 85.0724 423.42 85.2354 423.277 85.5613C423.133 85.8873 423.061 86.38 423.061 87.0396ZM425.727 87.0396C425.727 87.9243 425.577 88.5936 425.279 89.0476C424.984 89.4977 424.549 89.7227 423.975 89.7227C423.432 89.7227 423.009 89.4919 422.706 89.0301C422.407 88.5684 422.258 87.9049 422.258 87.0396C422.258 86.1589 422.402 85.4954 422.689 85.0492C422.98 84.6029 423.409 84.3798 423.975 84.3798C424.538 84.3798 424.97 84.6107 425.273 85.0724C425.576 85.5342 425.727 86.1899 425.727 87.0396ZM428.183 90.4503C428.183 91.1138 428.255 91.6104 428.398 91.9402C428.542 92.2662 428.777 92.4291 429.103 92.4291C429.428 92.4291 429.669 92.2681 429.824 91.946C429.979 91.6201 430.057 91.1215 430.057 90.4503C430.057 89.7868 429.979 89.2959 429.824 88.9778C429.669 88.6557 429.428 88.4947 429.103 88.4947C428.777 88.4947 428.542 88.6557 428.398 88.9778C428.255 89.2959 428.183 89.7868 428.183 90.4503ZM430.854 90.4503C430.854 91.331 430.705 91.9984 430.406 92.4524C430.111 92.9025 429.677 93.1275 429.103 93.1275C428.552 93.1275 428.127 92.8967 427.828 92.4349C427.533 91.9732 427.386 91.3116 427.386 90.4503C427.386 89.5695 427.529 88.906 427.816 88.4598C428.107 88.0136 428.536 87.7905 429.103 87.7905C429.654 87.7905 430.082 88.0194 430.389 88.4772C430.699 88.9312 430.854 89.5889 430.854 90.4503ZM429.353 84.5021L424.633 93.0111H423.777L428.497 84.5021H429.353Z" fill="white"/>
<rect x="54.9223" y="121.695" width="11.7769" height="54.1739" rx="5.88847" transform="rotate(90 54.9223 121.695)" fill="#95ABBC"/>
<rect x="323.115" y="121.922" width="11.3237" height="253.889" rx="5.66186" transform="rotate(90 323.115 121.922)" fill="#65E4A3"/>
<path d="M339.078 131.75L342.605 124.132H337.966V123.241H343.629V124.015L340.148 131.75H339.078ZM347.482 126.553C348.378 126.553 349.082 126.776 349.595 127.222C350.111 127.664 350.369 128.272 350.369 129.044C350.369 129.925 350.087 130.615 349.525 131.116C348.966 131.616 348.194 131.867 347.208 131.867C346.25 131.867 345.518 131.713 345.014 131.407V130.475C345.286 130.65 345.623 130.788 346.027 130.889C346.43 130.986 346.828 131.034 347.22 131.034C347.903 131.034 348.432 130.873 348.809 130.551C349.189 130.229 349.379 129.763 349.379 129.154C349.379 127.967 348.652 127.373 347.197 127.373C346.828 127.373 346.335 127.43 345.718 127.542L345.218 127.222L345.538 123.241H349.769V124.132H346.364L346.149 126.687C346.595 126.597 347.039 126.553 347.482 126.553ZM352.47 125.779C352.47 126.438 352.541 126.933 352.685 127.263C352.829 127.593 353.061 127.757 353.383 127.757C354.02 127.757 354.338 127.098 354.338 125.779C354.338 124.467 354.02 123.811 353.383 123.811C353.061 123.811 352.829 123.974 352.685 124.3C352.541 124.626 352.47 125.119 352.47 125.779ZM355.135 125.779C355.135 126.663 354.986 127.333 354.687 127.787C354.392 128.237 353.958 128.462 353.383 128.462C352.84 128.462 352.417 128.231 352.115 127.769C351.816 127.307 351.667 126.644 351.667 125.779C351.667 124.898 351.81 124.234 352.097 123.788C352.388 123.342 352.817 123.119 353.383 123.119C353.946 123.119 354.379 123.35 354.681 123.811C354.984 124.273 355.135 124.929 355.135 125.779ZM357.591 129.189C357.591 129.853 357.663 130.349 357.807 130.679C357.95 131.005 358.185 131.168 358.511 131.168C358.837 131.168 359.078 131.007 359.233 130.685C359.388 130.359 359.466 129.86 359.466 129.189C359.466 128.526 359.388 128.035 359.233 127.717C359.078 127.395 358.837 127.234 358.511 127.234C358.185 127.234 357.95 127.395 357.807 127.717C357.663 128.035 357.591 128.526 357.591 129.189ZM360.263 129.189C360.263 130.07 360.113 130.737 359.815 131.191C359.52 131.641 359.085 131.867 358.511 131.867C357.96 131.867 357.535 131.636 357.236 131.174C356.942 130.712 356.794 130.051 356.794 129.189C356.794 128.308 356.938 127.645 357.225 127.199C357.516 126.753 357.945 126.529 358.511 126.529C359.062 126.529 359.491 126.758 359.797 127.216C360.108 127.67 360.263 128.328 360.263 129.189ZM358.761 123.241L354.041 131.75H353.186L357.906 123.241H358.761Z" fill="white"/>
</svg>
