<svg width="174" height="175" viewBox="0 0 174 175" fill="none" xmlns="http://www.w3.org/2000/svg">
<g clip-path="url(#clip0_7405_88)">
<path d="M161.328 87.5295C161.328 128.644 128.079 161.927 87.1236 161.927C46.168 161.927 12.9194 128.644 12.9194 87.5295C12.9194 46.4147 46.168 13.132 87.1236 13.132C128.079 13.132 161.328 46.4147 161.328 87.5295Z" stroke="#0A2640" stroke-width="24.971"/>
<mask id="mask0_7405_88" style="mask-type:alpha" maskUnits="userSpaceOnUse" x="-52" y="-31" width="137" height="226">
<path d="M84.3571 79.5188L50.5419 -30.7795L-51.8257 99.237L2.58593 194.131L84.3571 79.5188Z" fill="#C4C4C4"/>
</mask>
<g mask="url(#mask0_7405_88)">
<path d="M161.328 87.5293C161.328 128.644 128.08 161.927 87.1239 161.927C46.1683 161.927 12.9197 128.644 12.9197 87.5293C12.9197 46.4144 46.1683 13.1317 87.1239 13.1317C128.08 13.1317 161.328 46.4144 161.328 87.5293Z" stroke="#0DBBFC" stroke-width="24.971"/>
</g>
<mask id="mask1_7405_88" style="mask-type:alpha" maskUnits="userSpaceOnUse" x="39" y="-40" width="169" height="157">
<path d="M95.8035 89.1839L207.668 116.575L148.552 -38.1029L39.3615 -39.8807L95.8035 89.1839Z" fill="#C4C4C4"/>
</mask>
<g mask="url(#mask1_7405_88)">
<path d="M49.0876 151.371C13.863 130.33 2.30264 84.6744 23.2714 49.3958C44.2402 14.1172 89.7949 2.57953 125.02 23.6211C160.244 44.6626 171.805 90.3181 150.836 125.597C129.867 160.875 84.3122 172.413 49.0876 151.371Z" stroke="#69E6A6" stroke-width="24.971"/>
</g>
</g>
<defs>
<clipPath id="clip0_7405_88">
<rect width="173.469" height="173.469" fill="white" transform="translate(0.26825 0.790039)"/>
</clipPath>
</defs>
</svg>
